<mxfile host="65bd71144e">
    <diagram id="zmbx7RX13E1gPNatcwdM" name="Page-1">
        <mxGraphModel dx="1141" dy="781" grid="1" gridSize="10" guides="1" tooltips="1" connect="1" arrows="1" fold="1" page="1" pageScale="1" pageWidth="827" pageHeight="1169" background="#ffffff" math="0" shadow="0">
            <root>
                <mxCell id="0"/>
                <mxCell id="1" parent="0"/>
                <mxCell id="29" value="" style="strokeWidth=1;shadow=0;dashed=0;align=center;html=1;shape=mxgraph.mockup.containers.browserWindow;rSize=0;strokeColor=#666666;strokeColor2=#008cff;strokeColor3=#c4c4c4;mainText=,;recursiveResize=0;" parent="1" vertex="1">
                    <mxGeometry x="14" y="20" width="800" height="810" as="geometry"/>
                </mxCell>
                <mxCell id="30" value="Stravacat 🐱" style="strokeWidth=1;shadow=0;dashed=0;align=center;html=1;shape=mxgraph.mockup.containers.anchor;fontSize=17;fontColor=#666666;align=left;" parent="29" vertex="1">
                    <mxGeometry x="60" y="12" width="110" height="26" as="geometry"/>
                </mxCell>
                <mxCell id="31" value="https://www.stravacat.io/profile" style="strokeWidth=1;shadow=0;dashed=0;align=center;html=1;shape=mxgraph.mockup.containers.anchor;rSize=0;fontSize=17;fontColor=#666666;align=left;" parent="29" vertex="1">
                    <mxGeometry x="130" y="60" width="250" height="26" as="geometry"/>
                </mxCell>
                <mxCell id="2" value="" style="verticalLabelPosition=bottom;shadow=0;dashed=0;align=center;html=1;verticalAlign=top;strokeWidth=1;shape=mxgraph.mockup.containers.userMale;strokeColor=#666666;strokeColor2=#008cff;" parent="29" vertex="1">
                    <mxGeometry x="36" y="220" width="100" height="100" as="geometry"/>
                </mxCell>
                <mxCell id="27" value="" style="verticalLabelPosition=bottom;shadow=0;dashed=0;align=center;html=1;verticalAlign=top;strokeWidth=1;shape=mxgraph.mockup.navigation.scrollBar;strokeColor=#999999;barPos=98.333;fillColor2=#99ddff;strokeColor2=none;direction=north;" parent="29" vertex="1">
                    <mxGeometry x="766" y="130" width="20" height="580" as="geometry"/>
                </mxCell>
                <mxCell id="47" value="" style="verticalLabelPosition=bottom;shadow=0;dashed=0;align=center;html=1;verticalAlign=top;strokeWidth=1;shape=mxgraph.mockup.misc.help_icon;fontSize=15;" parent="29" vertex="1">
                    <mxGeometry x="555" y="130" width="32" height="32" as="geometry"/>
                </mxCell>
                <mxCell id="50" value="" style="strokeWidth=1;shadow=0;dashed=0;align=center;html=1;shape=mxgraph.mockup.text.rrect;rSize=0;strokeColor=#666666;fontSize=15;" parent="29" vertex="1">
                    <mxGeometry x="200" y="137" width="536" height="25" as="geometry"/>
                </mxCell>
                <mxCell id="51" value="Amis" style="strokeColor=inherit;fillColor=inherit;gradientColor=inherit;strokeWidth=1;shadow=0;dashed=0;align=center;html=1;shape=mxgraph.mockup.text.rrect;rSize=0;fontSize=17;fontColor=#0000ff;" parent="50" vertex="1">
                    <mxGeometry x="134" width="134" height="25" as="geometry"/>
                </mxCell>
                <mxCell id="52" value="Actualités" style="strokeColor=inherit;fillColor=inherit;gradientColor=inherit;strokeWidth=1;shadow=0;dashed=0;align=center;html=1;shape=mxgraph.mockup.text.rrect;rSize=0;fontSize=17;fontColor=#0000ff;" parent="50" vertex="1">
                    <mxGeometry x="268" width="134" height="25" as="geometry"/>
                </mxCell>
                <mxCell id="53" value="A propos" style="strokeColor=inherit;fillColor=inherit;gradientColor=inherit;strokeWidth=1;shadow=0;dashed=0;align=center;html=1;shape=mxgraph.mockup.text.rrect;rSize=0;fontSize=17;fontColor=#0000ff;" parent="50" vertex="1">
                    <mxGeometry x="402" width="134" height="25" as="geometry"/>
                </mxCell>
                <mxCell id="54" value="Ton profil" style="strokeWidth=1;shadow=0;dashed=0;align=center;html=1;shape=mxgraph.mockup.text.rrect;rSize=0;fontSize=17;fontColor=#ffffff;fillColor=#008cff;strokeColor=#008cff;" parent="50" vertex="1">
                    <mxGeometry width="134" height="25" as="geometry"/>
                </mxCell>
            </root>
        </mxGraphModel>
    </diagram>
</mxfile>